<mxfile host="app.diagrams.net" modified="2020-04-18T14:27:04.656Z" agent="5.0 (Windows NT 10.0; Win64; x64) AppleWebKit/537.36 (KHTML, like Gecko) Chrome/80.0.3987.163 Safari/537.36" etag="YMrLvlzKznlpcQ39CxcV" version="12.9.13" type="github">
  <diagram id="u6-ITl7havOLiE7Qw6o2" name="Page-1">
    <mxGraphModel dx="2249" dy="1962" grid="1" gridSize="10" guides="1" tooltips="1" connect="1" arrows="1" fold="1" page="1" pageScale="1" pageWidth="827" pageHeight="1169" math="0" shadow="0">
      <root>
        <mxCell id="0" />
        <mxCell id="1" parent="0" />
        <mxCell id="Bc8iCjD8DV4jMRBxt45--1" value="Business Layer" style="shape=module;fontStyle=1;spacingTop=-1;tabWidth=127;tabHeight=24;tabPosition=left;html=1;labelPosition=left;verticalLabelPosition=top;align=right;verticalAlign=bottom;spacingBottom=-47;spacingRight=-102;fillColor=#fff2cc;strokeColor=#d6b656;jettyWidth=121;jettyHeight=25;" parent="1" vertex="1">
          <mxGeometry x="-420" y="-120" width="2160" height="1224" as="geometry" />
        </mxCell>
        <mxCell id="7azGiuc3Ixv7HJGIlcdi-16" value="Board Package" style="shape=folder;fontStyle=1;spacingTop=-2;tabWidth=203;tabHeight=27;tabPosition=left;html=1;fillColor=none;labelPosition=left;verticalLabelPosition=top;align=right;verticalAlign=bottom;spacingBottom=-26;spacingRight=-100;" parent="1" vertex="1">
          <mxGeometry x="-290" y="-60" width="1082" height="1150" as="geometry" />
        </mxCell>
        <mxCell id="7azGiuc3Ixv7HJGIlcdi-17" value="User Package" style="shape=folder;fontStyle=1;spacingTop=10;tabWidth=146;tabHeight=27;tabPosition=left;html=1;fillColor=none;labelPosition=left;verticalLabelPosition=top;align=right;verticalAlign=bottom;spacingRight=-100;spacingBottom=-25;" parent="1" vertex="1">
          <mxGeometry x="915" y="-60" width="795" height="915" as="geometry" />
        </mxCell>
        <mxCell id="TAwMk2L25y2mn7AtMvrn-1" value="Column" style="swimlane;fontStyle=1;align=center;verticalAlign=top;childLayout=stackLayout;horizontal=1;startSize=26;horizontalStack=0;resizeParent=1;resizeParentMax=0;resizeLast=0;collapsible=1;marginBottom=0;" parent="1" vertex="1">
          <mxGeometry x="-120" y="385" width="210" height="160" as="geometry" />
        </mxCell>
        <mxCell id="TAwMk2L25y2mn7AtMvrn-2" value="- name : String" style="text;strokeColor=none;fillColor=none;align=left;verticalAlign=top;spacingLeft=4;spacingRight=4;overflow=hidden;rotatable=0;points=[[0,0.5],[1,0.5]];portConstraint=eastwest;" parent="TAwMk2L25y2mn7AtMvrn-1" vertex="1">
          <mxGeometry y="26" width="210" height="24" as="geometry" />
        </mxCell>
        <mxCell id="TAwMk2L25y2mn7AtMvrn-23" value="- taskList : List&lt;Task&gt;" style="text;strokeColor=none;fillColor=none;align=left;verticalAlign=top;spacingLeft=4;spacingRight=4;overflow=hidden;rotatable=0;points=[[0,0.5],[1,0.5]];portConstraint=eastwest;" parent="TAwMk2L25y2mn7AtMvrn-1" vertex="1">
          <mxGeometry y="50" width="210" height="26" as="geometry" />
        </mxCell>
        <mxCell id="TAwMk2L25y2mn7AtMvrn-3" value="" style="line;strokeWidth=1;fillColor=none;align=left;verticalAlign=middle;spacingTop=-1;spacingLeft=3;spacingRight=3;rotatable=0;labelPosition=right;points=[];portConstraint=eastwest;" parent="TAwMk2L25y2mn7AtMvrn-1" vertex="1">
          <mxGeometry y="76" width="210" height="8" as="geometry" />
        </mxCell>
        <mxCell id="TAwMk2L25y2mn7AtMvrn-4" value="+ GetTaskByID(taskID : int) : Task" style="text;strokeColor=none;fillColor=none;align=left;verticalAlign=top;spacingLeft=4;spacingRight=4;overflow=hidden;rotatable=0;points=[[0,0.5],[1,0.5]];portConstraint=eastwest;" parent="TAwMk2L25y2mn7AtMvrn-1" vertex="1">
          <mxGeometry y="84" width="210" height="26" as="geometry" />
        </mxCell>
        <mxCell id="TAwMk2L25y2mn7AtMvrn-17" value="+ LimitTasks(num : int) : void&#xa;" style="text;strokeColor=none;fillColor=none;align=left;verticalAlign=top;spacingLeft=4;spacingRight=4;overflow=hidden;rotatable=0;points=[[0,0.5],[1,0.5]];portConstraint=eastwest;" parent="TAwMk2L25y2mn7AtMvrn-1" vertex="1">
          <mxGeometry y="110" width="210" height="20" as="geometry" />
        </mxCell>
        <mxCell id="TAwMk2L25y2mn7AtMvrn-21" value="+ method(type): type" style="text;strokeColor=none;fillColor=none;align=left;verticalAlign=top;spacingLeft=4;spacingRight=4;overflow=hidden;rotatable=0;points=[[0,0.5],[1,0.5]];portConstraint=eastwest;" parent="TAwMk2L25y2mn7AtMvrn-1" vertex="1">
          <mxGeometry y="130" width="210" height="30" as="geometry" />
        </mxCell>
        <mxCell id="TAwMk2L25y2mn7AtMvrn-24" value="Extends" style="endArrow=block;endSize=16;endFill=0;html=1;exitX=0.444;exitY=0.031;exitDx=0;exitDy=0;exitPerimeter=0;entryX=0.135;entryY=1.09;entryDx=0;entryDy=0;entryPerimeter=0;" parent="1" source="Bc8iCjD8DV4jMRBxt45--15" target="TAwMk2L25y2mn7AtMvrn-21" edge="1">
          <mxGeometry width="160" relative="1" as="geometry">
            <mxPoint x="-210" y="480" as="sourcePoint" />
            <mxPoint x="-50" y="480" as="targetPoint" />
          </mxGeometry>
        </mxCell>
        <mxCell id="TAwMk2L25y2mn7AtMvrn-25" value="Extends" style="endArrow=block;endSize=16;endFill=0;html=1;exitX=0.361;exitY=0.232;exitDx=0;exitDy=0;exitPerimeter=0;entryX=0.899;entryY=0.907;entryDx=0;entryDy=0;entryPerimeter=0;" parent="1" source="Bc8iCjD8DV4jMRBxt45--26" target="TAwMk2L25y2mn7AtMvrn-21" edge="1">
          <mxGeometry width="160" relative="1" as="geometry">
            <mxPoint x="-38.95999999999981" y="694.3399999999999" as="sourcePoint" />
            <mxPoint x="-2.0883732114943996" y="661" as="targetPoint" />
          </mxGeometry>
        </mxCell>
        <mxCell id="TAwMk2L25y2mn7AtMvrn-26" value="Extends" style="endArrow=block;endSize=16;endFill=0;html=1;" parent="1" source="Bc8iCjD8DV4jMRBxt45--22" target="TAwMk2L25y2mn7AtMvrn-1" edge="1">
          <mxGeometry width="160" relative="1" as="geometry">
            <mxPoint x="-28.95999999999981" y="704.3399999999999" as="sourcePoint" />
            <mxPoint x="7.9116267885056" y="671" as="targetPoint" />
          </mxGeometry>
        </mxCell>
        <mxCell id="7azGiuc3Ixv7HJGIlcdi-8" value="Board" style="swimlane;fontStyle=1;align=center;verticalAlign=top;childLayout=stackLayout;horizontal=1;startSize=26;horizontalStack=0;resizeParent=1;resizeParentMax=0;resizeLast=0;collapsible=1;marginBottom=0;" parent="1" vertex="1">
          <mxGeometry x="-120" y="24" width="210" height="186" as="geometry" />
        </mxCell>
        <mxCell id="7azGiuc3Ixv7HJGIlcdi-9" value="- backlog : column" style="text;strokeColor=none;fillColor=none;align=left;verticalAlign=top;spacingLeft=4;spacingRight=4;overflow=hidden;rotatable=0;points=[[0,0.5],[1,0.5]];portConstraint=eastwest;" parent="7azGiuc3Ixv7HJGIlcdi-8" vertex="1">
          <mxGeometry y="26" width="210" height="24" as="geometry" />
        </mxCell>
        <mxCell id="7azGiuc3Ixv7HJGIlcdi-10" value="- inProgress : column" style="text;strokeColor=none;fillColor=none;align=left;verticalAlign=top;spacingLeft=4;spacingRight=4;overflow=hidden;rotatable=0;points=[[0,0.5],[1,0.5]];portConstraint=eastwest;" parent="7azGiuc3Ixv7HJGIlcdi-8" vertex="1">
          <mxGeometry y="50" width="210" height="26" as="geometry" />
        </mxCell>
        <mxCell id="7azGiuc3Ixv7HJGIlcdi-15" value="- done: column" style="text;strokeColor=none;fillColor=none;align=left;verticalAlign=top;spacingLeft=4;spacingRight=4;overflow=hidden;rotatable=0;points=[[0,0.5],[1,0.5]];portConstraint=eastwest;" parent="7azGiuc3Ixv7HJGIlcdi-8" vertex="1">
          <mxGeometry y="76" width="210" height="26" as="geometry" />
        </mxCell>
        <mxCell id="7azGiuc3Ixv7HJGIlcdi-11" value="" style="line;strokeWidth=1;fillColor=none;align=left;verticalAlign=middle;spacingTop=-1;spacingLeft=3;spacingRight=3;rotatable=0;labelPosition=right;points=[];portConstraint=eastwest;" parent="7azGiuc3Ixv7HJGIlcdi-8" vertex="1">
          <mxGeometry y="102" width="210" height="8" as="geometry" />
        </mxCell>
        <mxCell id="7azGiuc3Ixv7HJGIlcdi-12" value="+ GetTaskByID(taskID : int) : Task" style="text;strokeColor=none;fillColor=none;align=left;verticalAlign=top;spacingLeft=4;spacingRight=4;overflow=hidden;rotatable=0;points=[[0,0.5],[1,0.5]];portConstraint=eastwest;" parent="7azGiuc3Ixv7HJGIlcdi-8" vertex="1">
          <mxGeometry y="110" width="210" height="26" as="geometry" />
        </mxCell>
        <mxCell id="7azGiuc3Ixv7HJGIlcdi-13" value="+ LimitTasks(num : int) : void&#xa;" style="text;strokeColor=none;fillColor=none;align=left;verticalAlign=top;spacingLeft=4;spacingRight=4;overflow=hidden;rotatable=0;points=[[0,0.5],[1,0.5]];portConstraint=eastwest;" parent="7azGiuc3Ixv7HJGIlcdi-8" vertex="1">
          <mxGeometry y="136" width="210" height="20" as="geometry" />
        </mxCell>
        <mxCell id="7azGiuc3Ixv7HJGIlcdi-14" value="+ method(type): type" style="text;strokeColor=none;fillColor=none;align=left;verticalAlign=top;spacingLeft=4;spacingRight=4;overflow=hidden;rotatable=0;points=[[0,0.5],[1,0.5]];portConstraint=eastwest;" parent="7azGiuc3Ixv7HJGIlcdi-8" vertex="1">
          <mxGeometry y="156" width="210" height="30" as="geometry" />
        </mxCell>
        <mxCell id="TAwMk2L25y2mn7AtMvrn-30" value="&lt;p style=&quot;margin: 0px ; margin-top: 4px ; text-align: center&quot;&gt;&lt;i&gt;&amp;lt;&amp;lt;Interface&amp;gt;&amp;gt;&lt;/i&gt;&lt;br&gt;&lt;b&gt;IColumn&lt;/b&gt;&lt;/p&gt;&lt;hr size=&quot;1&quot;&gt;&lt;p style=&quot;margin: 0px ; margin-left: 4px&quot;&gt;+ AdvanceTask (currentColumn : Column) : void&lt;/p&gt;&lt;p style=&quot;margin: 0px ; margin-left: 4px&quot;&gt;+ DeleteTask(taskID : int) : void&lt;br&gt;&lt;/p&gt;&lt;p style=&quot;margin: 0px ; margin-left: 4px&quot;&gt;+ EditTask(taskID : int, title : String, description : String, dueDate : String) :&amp;nbsp; void&lt;br&gt;&lt;/p&gt;&lt;p style=&quot;margin: 0px ; margin-left: 4px&quot;&gt;&lt;br&gt;&lt;/p&gt;" style="verticalAlign=top;align=left;overflow=fill;fontSize=12;fontFamily=Helvetica;html=1;" parent="1" vertex="1">
          <mxGeometry x="-190" y="890" width="440" height="100" as="geometry" />
        </mxCell>
        <mxCell id="Bc8iCjD8DV4jMRBxt45--15" value="Backlog" style="swimlane;fontStyle=1;align=center;verticalAlign=top;childLayout=stackLayout;horizontal=1;startSize=26;horizontalStack=0;resizeParent=1;resizeParentMax=0;resizeLast=0;collapsible=1;marginBottom=0;" parent="1" vertex="1">
          <mxGeometry x="-280" y="710" width="160" height="140" as="geometry" />
        </mxCell>
        <mxCell id="Bc8iCjD8DV4jMRBxt45--16" value="- taskList : &lt;Task&gt;&#xa;" style="text;strokeColor=none;fillColor=none;align=left;verticalAlign=top;spacingLeft=4;spacingRight=4;overflow=hidden;rotatable=0;points=[[0,0.5],[1,0.5]];portConstraint=eastwest;" parent="Bc8iCjD8DV4jMRBxt45--15" vertex="1">
          <mxGeometry y="26" width="160" height="24" as="geometry" />
        </mxCell>
        <mxCell id="Bc8iCjD8DV4jMRBxt45--17" value="" style="line;strokeWidth=1;fillColor=none;align=left;verticalAlign=middle;spacingTop=-1;spacingLeft=3;spacingRight=3;rotatable=0;labelPosition=right;points=[];portConstraint=eastwest;" parent="Bc8iCjD8DV4jMRBxt45--15" vertex="1">
          <mxGeometry y="50" width="160" height="8" as="geometry" />
        </mxCell>
        <mxCell id="Bc8iCjD8DV4jMRBxt45--18" value="+LimitTasks(num : int) : void" style="text;strokeColor=none;fillColor=none;align=left;verticalAlign=top;spacingLeft=4;spacingRight=4;overflow=hidden;rotatable=0;points=[[0,0.5],[1,0.5]];portConstraint=eastwest;" parent="Bc8iCjD8DV4jMRBxt45--15" vertex="1">
          <mxGeometry y="58" width="160" height="82" as="geometry" />
        </mxCell>
        <mxCell id="Bc8iCjD8DV4jMRBxt45--22" value="In Progress" style="swimlane;fontStyle=1;align=center;verticalAlign=top;childLayout=stackLayout;horizontal=1;startSize=26;horizontalStack=0;resizeParent=1;resizeParentMax=0;resizeLast=0;collapsible=1;marginBottom=0;" parent="1" vertex="1">
          <mxGeometry x="-40" y="730" width="160" height="86" as="geometry" />
        </mxCell>
        <mxCell id="Bc8iCjD8DV4jMRBxt45--23" value="- taskList : &lt;Task&gt;&#xa;" style="text;strokeColor=none;fillColor=none;align=left;verticalAlign=top;spacingLeft=4;spacingRight=4;overflow=hidden;rotatable=0;points=[[0,0.5],[1,0.5]];portConstraint=eastwest;" parent="Bc8iCjD8DV4jMRBxt45--22" vertex="1">
          <mxGeometry y="26" width="160" height="26" as="geometry" />
        </mxCell>
        <mxCell id="Bc8iCjD8DV4jMRBxt45--24" value="" style="line;strokeWidth=1;fillColor=none;align=left;verticalAlign=middle;spacingTop=-1;spacingLeft=3;spacingRight=3;rotatable=0;labelPosition=right;points=[];portConstraint=eastwest;" parent="Bc8iCjD8DV4jMRBxt45--22" vertex="1">
          <mxGeometry y="52" width="160" height="8" as="geometry" />
        </mxCell>
        <mxCell id="Bc8iCjD8DV4jMRBxt45--25" value="+ method(type): type" style="text;strokeColor=none;fillColor=none;align=left;verticalAlign=top;spacingLeft=4;spacingRight=4;overflow=hidden;rotatable=0;points=[[0,0.5],[1,0.5]];portConstraint=eastwest;" parent="Bc8iCjD8DV4jMRBxt45--22" vertex="1">
          <mxGeometry y="60" width="160" height="26" as="geometry" />
        </mxCell>
        <mxCell id="Bc8iCjD8DV4jMRBxt45--26" value="Done" style="swimlane;fontStyle=1;align=center;verticalAlign=top;childLayout=stackLayout;horizontal=1;startSize=26;horizontalStack=0;resizeParent=1;resizeParentMax=0;resizeLast=0;collapsible=1;marginBottom=0;" parent="1" vertex="1">
          <mxGeometry x="150" y="730" width="160" height="86" as="geometry" />
        </mxCell>
        <mxCell id="Bc8iCjD8DV4jMRBxt45--27" value="- taskList : &lt;Task&gt;&#xa;" style="text;strokeColor=none;fillColor=none;align=left;verticalAlign=top;spacingLeft=4;spacingRight=4;overflow=hidden;rotatable=0;points=[[0,0.5],[1,0.5]];portConstraint=eastwest;" parent="Bc8iCjD8DV4jMRBxt45--26" vertex="1">
          <mxGeometry y="26" width="160" height="26" as="geometry" />
        </mxCell>
        <mxCell id="Bc8iCjD8DV4jMRBxt45--28" value="" style="line;strokeWidth=1;fillColor=none;align=left;verticalAlign=middle;spacingTop=-1;spacingLeft=3;spacingRight=3;rotatable=0;labelPosition=right;points=[];portConstraint=eastwest;" parent="Bc8iCjD8DV4jMRBxt45--26" vertex="1">
          <mxGeometry y="52" width="160" height="8" as="geometry" />
        </mxCell>
        <mxCell id="Bc8iCjD8DV4jMRBxt45--29" value="+ method(type): type" style="text;strokeColor=none;fillColor=none;align=left;verticalAlign=top;spacingLeft=4;spacingRight=4;overflow=hidden;rotatable=0;points=[[0,0.5],[1,0.5]];portConstraint=eastwest;" parent="Bc8iCjD8DV4jMRBxt45--26" vertex="1">
          <mxGeometry y="60" width="160" height="26" as="geometry" />
        </mxCell>
        <mxCell id="7azGiuc3Ixv7HJGIlcdi-1" value="1" style="endArrow=open;html=1;endSize=12;startArrow=diamondThin;startSize=14;startFill=1;edgeStyle=orthogonalEdgeStyle;align=left;verticalAlign=bottom;entryX=0.5;entryY=0;entryDx=0;entryDy=0;" parent="1" target="TAwMk2L25y2mn7AtMvrn-1" edge="1">
          <mxGeometry x="-1" y="3" relative="1" as="geometry">
            <mxPoint x="-14.941176470588289" y="209.9999999999999" as="sourcePoint" />
            <mxPoint x="-120" y="700" as="targetPoint" />
            <Array as="points">
              <mxPoint x="-15" y="270" />
              <mxPoint x="-15" y="270" />
            </Array>
          </mxGeometry>
        </mxCell>
        <mxCell id="7azGiuc3Ixv7HJGIlcdi-2" value="1" style="endArrow=open;html=1;endSize=12;startArrow=diamondThin;startSize=14;startFill=1;edgeStyle=orthogonalEdgeStyle;align=left;verticalAlign=bottom;" parent="1" source="TAwMk2L25y2mn7AtMvrn-17" target="Bc8iCjD8DV4jMRBxt45--12" edge="1">
          <mxGeometry x="-1" y="3" relative="1" as="geometry">
            <mxPoint x="-15" y="390" as="sourcePoint" />
            <mxPoint x="620" y="540" as="targetPoint" />
            <Array as="points">
              <mxPoint x="240" y="505" />
              <mxPoint x="240" y="505" />
            </Array>
          </mxGeometry>
        </mxCell>
        <mxCell id="Bc8iCjD8DV4jMRBxt45--11" value="Task" style="swimlane;fontStyle=1;align=center;verticalAlign=top;childLayout=stackLayout;horizontal=1;startSize=26;horizontalStack=0;resizeParent=1;resizeParentMax=0;resizeLast=0;collapsible=1;marginBottom=0;" parent="1" vertex="1">
          <mxGeometry x="380" y="450" width="340" height="218" as="geometry" />
        </mxCell>
        <mxCell id="Bc8iCjD8DV4jMRBxt45--12" value="- taskId : int&#xa;- creationTime : Sting&#xa;- dueDate : Date&#xa;- title : String&#xa;- description : String&#xa;" style="text;strokeColor=none;fillColor=none;align=left;verticalAlign=top;spacingLeft=4;spacingRight=4;overflow=hidden;rotatable=0;points=[[0,0.5],[1,0.5]];portConstraint=eastwest;" parent="Bc8iCjD8DV4jMRBxt45--11" vertex="1">
          <mxGeometry y="26" width="340" height="84" as="geometry" />
        </mxCell>
        <mxCell id="Bc8iCjD8DV4jMRBxt45--13" value="" style="line;strokeWidth=1;fillColor=none;align=left;verticalAlign=middle;spacingTop=-1;spacingLeft=3;spacingRight=3;rotatable=0;labelPosition=right;points=[];portConstraint=eastwest;" parent="Bc8iCjD8DV4jMRBxt45--11" vertex="1">
          <mxGeometry y="110" width="340" height="20" as="geometry" />
        </mxCell>
        <mxCell id="Bc8iCjD8DV4jMRBxt45--49" value="+Edit(title: String, description : String, dueDate : Date)" style="text;strokeColor=none;fillColor=none;align=left;verticalAlign=top;spacingLeft=4;spacingRight=4;overflow=hidden;rotatable=0;points=[[0,0.5],[1,0.5]];portConstraint=eastwest;" parent="Bc8iCjD8DV4jMRBxt45--11" vertex="1">
          <mxGeometry y="130" width="340" height="44" as="geometry" />
        </mxCell>
        <mxCell id="7azGiuc3Ixv7HJGIlcdi-6" value="+Edit(title: String, description : String, dueDate : Date)" style="text;strokeColor=none;fillColor=none;align=left;verticalAlign=top;spacingLeft=4;spacingRight=4;overflow=hidden;rotatable=0;points=[[0,0.5],[1,0.5]];portConstraint=eastwest;" parent="Bc8iCjD8DV4jMRBxt45--11" vertex="1">
          <mxGeometry y="174" width="340" height="44" as="geometry" />
        </mxCell>
        <mxCell id="7azGiuc3Ixv7HJGIlcdi-18" value="UserController" style="swimlane;fontStyle=1;align=center;verticalAlign=top;childLayout=stackLayout;horizontal=1;startSize=26;horizontalStack=0;resizeParent=1;resizeParentMax=0;resizeLast=0;collapsible=1;marginBottom=0;" parent="1" vertex="1">
          <mxGeometry x="1160" y="10" width="380" height="66" as="geometry" />
        </mxCell>
        <mxCell id="w70P0xT7whJX2vHR09QK-2" value="+ Login(email : String, password : String) : void" style="text;strokeColor=none;fillColor=none;align=left;verticalAlign=top;spacingLeft=4;spacingRight=4;overflow=hidden;rotatable=0;points=[[0,0.5],[1,0.5]];portConstraint=eastwest;" vertex="1" parent="7azGiuc3Ixv7HJGIlcdi-18">
          <mxGeometry y="26" width="380" height="20" as="geometry" />
        </mxCell>
        <mxCell id="w70P0xT7whJX2vHR09QK-3" value="+Register(email : String, password : String) : void" style="text;strokeColor=none;fillColor=none;align=left;verticalAlign=top;spacingLeft=4;spacingRight=4;overflow=hidden;rotatable=0;points=[[0,0.5],[1,0.5]];portConstraint=eastwest;" vertex="1" parent="7azGiuc3Ixv7HJGIlcdi-18">
          <mxGeometry y="46" width="380" height="20" as="geometry" />
        </mxCell>
        <mxCell id="Bc8iCjD8DV4jMRBxt45--51" value="Password" style="swimlane;fontStyle=1;align=center;verticalAlign=top;childLayout=stackLayout;horizontal=1;startSize=26;horizontalStack=0;resizeParent=1;resizeParentMax=0;resizeLast=0;collapsible=1;marginBottom=0;" parent="1" vertex="1">
          <mxGeometry x="1180" y="642" width="340" height="174" as="geometry" />
        </mxCell>
        <mxCell id="Bc8iCjD8DV4jMRBxt45--52" value="- taskId : int&#xa;- creationTime : Sting&#xa;- dueDate : Date&#xa;- title : String&#xa;- description : String&#xa;" style="text;strokeColor=none;fillColor=none;align=left;verticalAlign=top;spacingLeft=4;spacingRight=4;overflow=hidden;rotatable=0;points=[[0,0.5],[1,0.5]];portConstraint=eastwest;" parent="Bc8iCjD8DV4jMRBxt45--51" vertex="1">
          <mxGeometry y="26" width="340" height="84" as="geometry" />
        </mxCell>
        <mxCell id="Bc8iCjD8DV4jMRBxt45--53" value="" style="line;strokeWidth=1;fillColor=none;align=left;verticalAlign=middle;spacingTop=-1;spacingLeft=3;spacingRight=3;rotatable=0;labelPosition=right;points=[];portConstraint=eastwest;" parent="Bc8iCjD8DV4jMRBxt45--51" vertex="1">
          <mxGeometry y="110" width="340" height="20" as="geometry" />
        </mxCell>
        <mxCell id="Bc8iCjD8DV4jMRBxt45--54" value="+Edit(title: String, description : String, dueDate : Date)" style="text;strokeColor=none;fillColor=none;align=left;verticalAlign=top;spacingLeft=4;spacingRight=4;overflow=hidden;rotatable=0;points=[[0,0.5],[1,0.5]];portConstraint=eastwest;" parent="Bc8iCjD8DV4jMRBxt45--51" vertex="1">
          <mxGeometry y="130" width="340" height="44" as="geometry" />
        </mxCell>
        <mxCell id="Bc8iCjD8DV4jMRBxt45--7" value="User" style="swimlane;fontStyle=1;align=center;verticalAlign=top;childLayout=stackLayout;horizontal=1;startSize=26;horizontalStack=0;resizeParent=1;resizeParentMax=0;resizeLast=0;collapsible=1;marginBottom=0;" parent="1" vertex="1">
          <mxGeometry x="1160" y="260" width="380" height="210" as="geometry" />
        </mxCell>
        <mxCell id="Bc8iCjD8DV4jMRBxt45--8" value="- email : String&#xa;- password : password&#xa;+ nickname : String&#xa;- is_logged : bool" style="text;strokeColor=none;fillColor=none;align=left;verticalAlign=top;spacingLeft=4;spacingRight=4;overflow=hidden;rotatable=0;points=[[0,0.5],[1,0.5]];portConstraint=eastwest;" parent="Bc8iCjD8DV4jMRBxt45--7" vertex="1">
          <mxGeometry y="26" width="380" height="64" as="geometry" />
        </mxCell>
        <mxCell id="Bc8iCjD8DV4jMRBxt45--9" value="" style="line;strokeWidth=1;fillColor=none;align=left;verticalAlign=middle;spacingTop=-1;spacingLeft=3;spacingRight=3;rotatable=0;labelPosition=right;points=[];portConstraint=eastwest;" parent="Bc8iCjD8DV4jMRBxt45--7" vertex="1">
          <mxGeometry y="90" width="380" height="8" as="geometry" />
        </mxCell>
        <mxCell id="Bc8iCjD8DV4jMRBxt45--10" value="+ changePassword(oldPass : password, newPass : password) : void&#xa;+ Login(email : string, password : password) : void&#xa;+ Logout() : void&#xa;+ AddTask (title : String, dueDate: String, description : String) : Task" style="text;strokeColor=none;fillColor=none;align=left;verticalAlign=top;spacingLeft=4;spacingRight=4;overflow=hidden;rotatable=0;points=[[0,0.5],[1,0.5]];portConstraint=eastwest;" parent="Bc8iCjD8DV4jMRBxt45--7" vertex="1">
          <mxGeometry y="98" width="380" height="112" as="geometry" />
        </mxCell>
      </root>
    </mxGraphModel>
  </diagram>
</mxfile>
